<svg xmlns="http://www.w3.org/2000/svg" width="393.37" height="353.011" viewBox="0 0 393.37 353.011"><defs><style>.a,.b{fill:none;}.a{stroke:#e5195e;stroke-width:2px;}.b{stroke:#707070;}</style></defs><g transform="translate(-344.593 -356.451)"><path class="a" d="M667.636,568.277c-.819,14.226-.779,28.564-2.631,42.654-4.2,31.964-20.982,56.2-48.052,73.371-14.4,9.136-30,15.669-46.975,17.624-28.5,3.283-54.015-4.207-75.923-23.112-13.712-11.833-23.473-26.657-32.472-42.142-16.017-27.56-32.273-54.982-48.362-82.5-5.048-8.634-9.826-17.427-14.84-26.081-2.26-3.9-4.958-7.553-7.178-11.476-7.491-13.23.53-29.471,15.545-31.155,9.115-1.023,15.64,3.343,20.215,11.075q20.223,34.181,40.542,68.3a18.688,18.688,0,0,0,1.7,2.674,3.64,3.64,0,0,0,4.913.974,3.754,3.754,0,0,0,2-4.853,12.739,12.739,0,0,0-1.288-2.573q-7.541-12.826-15.105-25.638-20.761-35.35-41.5-70.711c-7.324-12.48-2.509-26.574,10.562-30.926,8.735-2.908,18.808,1.118,23.845,9.65q12.777,21.645,25.452,43.348,7.388,12.583,14.79,25.156,8.376,14.256,16.745,28.518c.243.415.452.852.712,1.257,1.6,2.5,3.792,3.3,5.784,2.126,1.87-1.1,2.446-3.91,1.129-6.186-5.961-10.3-11.9-20.622-17.965-30.863q-19.723-33.29-39.557-66.513c-5.36-9.026-10.71-18.059-15.927-27.168-5.011-8.75-3.993-18.649,2.407-25.448,9.326-9.908,25.391-8.209,32.758,3.722,6.272,10.16,12.14,20.57,18.189,30.868q27.44,46.712,54.884,93.422c.293.5.576,1,.9,1.481,1.784,2.639,3.408,3.239,5.431,2.024,3.013-1.811,3.57-3.336,1.852-6.29Q548.6,492.9,536.86,472.989q-19.678-33.509-39.374-67.006c-6.768-11.535-2.7-25.129,8.99-30.193,9.181-3.978,20.112-.418,25.58,8.691,8.773,14.614,17.34,29.352,25.969,44.053q22.085,37.624,44.131,75.271c3,5.126,6.028,10.242,8.793,15.5,1.071,2.035,2.484,2.621,4.435,2.208a3.612,3.612,0,0,0,3.138-3.919c-.155-4.14-.451-8.274-.6-12.415-.561-15.886-1.224-31.772-1.517-47.664a29.935,29.935,0,0,1,2.034-10.128c3.269-9.331,13.827-14.682,23.4-12.12,4.412,1.18,7.184,4.336,9.306,8.135,3.536,6.331,5.1,13.321,6.159,20.368a882.378,882.378,0,0,1,9.563,104.469Z" transform="translate(18.547 5.781)"/><path class="b" d="M673.6,450.683c-2.854-43.149-21.931-76.1-60.815-96.556-3.049-1.6-4.29-4.166-3.072-6.751,1.307-2.774,4.065-3.584,7.282-2,23.555,11.6,40.952,29.456,52.984,52.616a115.368,115.368,0,0,1,13.312,57.593,27.409,27.409,0,0,1-.357,3.919,4.609,4.609,0,0,1-5.15,3.935,4.713,4.713,0,0,1-4.3-4.645c-.044-1.388.087-2.779.109-4.17C673.617,453.311,673.6,452,673.6,450.683Z" transform="translate(54.112 12.384)"/><path class="b" d="M319.015,528.265c0-2.626-.068-5.255.017-7.879.111-3.411,2.152-5.6,4.978-5.494,2.9.1,4.79,2.375,4.6,5.772a98.361,98.361,0,0,0,3.118,31.464c8.693,31.947,27.1,56.263,56.687,71.719a23.043,23.043,0,0,1,2.243,1.2,4.772,4.772,0,0,1,1.611,6.319,4.466,4.466,0,0,1-6.149,2.044c-5.363-2.879-10.867-5.621-15.817-9.121-23.421-16.564-38.968-38.822-47.034-66.324A101.77,101.77,0,0,1,319.015,528.265Z" transform="translate(26.1 23.069)"/><path class="b" d="M364.006,528.91c1.763,28.781,14.406,50.891,40.089,64.905,3.717,2.028,5.081,4.465,3.752,7.255-1.382,2.9-4.278,3.456-8.2,1.38-21.8-11.549-35.695-29.466-42.5-53.021a73.318,73.318,0,0,1-2.735-25.222c.225-3.509,2.09-5.546,4.976-5.454,2.978.095,4.721,2.373,4.618,5.985C363.973,526.128,364.006,527.52,364.006,528.91Z" transform="translate(23.55 22.79)"/><path class="b" d="M639.7,451.748c-1.926-28.867-14.75-50.919-40.61-64.782-2.816-1.51-4.006-3.111-3.652-5.53a4.292,4.292,0,0,1,3.876-4,7.467,7.467,0,0,1,3.952.83c20.946,10.668,34.7,27.5,42.166,49.619A77.459,77.459,0,0,1,649.41,455.7a17.392,17.392,0,0,1-.177,2.308,4.835,4.835,0,0,1-5.143,4.308,4.9,4.9,0,0,1-4.479-5.011c-.024-.925.066-1.852.082-2.778S639.7,452.675,639.7,451.748Z" transform="translate(55.116 10.01)"/></g></svg>